<svg width="248" height="62" viewBox="0 0 248 62" fill="none" xmlns="http://www.w3.org/2000/svg">
<path d="M22.94 9.30005H11.16C10.1328 9.30005 9.30005 10.1328 9.30005 11.16V22.94C9.30005 23.9673 10.1328 24.8 11.16 24.8H22.94C23.9673 24.8 24.8 23.9673 24.8 22.94V11.16C24.8 10.1328 23.9673 9.30005 22.94 9.30005Z" fill="#64748B"/>
<path d="M50.84 9.30005H39.06C38.0327 9.30005 37.2 10.1328 37.2 11.16V22.94C37.2 23.9673 38.0327 24.8 39.06 24.8H50.84C51.8672 24.8 52.7 23.9673 52.7 22.94V11.16C52.7 10.1328 51.8672 9.30005 50.84 9.30005Z" fill="#64748B"/>
<path d="M22.94 37.2H11.16C10.1328 37.2 9.30005 38.0327 9.30005 39.06V50.84C9.30005 51.8672 10.1328 52.7 11.16 52.7H22.94C23.9673 52.7 24.8 51.8672 24.8 50.84V39.06C24.8 38.0327 23.9673 37.2 22.94 37.2Z" fill="#64748B"/>
<path d="M50.84 37.2H39.06C38.0327 37.2 37.2 38.0327 37.2 39.06V50.84C37.2 51.8672 38.0327 52.7 39.06 52.7H50.84C51.8672 52.7 52.7 51.8672 52.7 50.84V39.06C52.7 38.0327 51.8672 37.2 50.84 37.2Z" stroke="#059669" stroke-width="2"/>
<g clip-path="url(#clip0_2205_172)">
<path d="M83.6591 21.7273H89.1705L94.4773 31.75H94.7045L100.011 21.7273H105.523L97.0341 36.7727V45H92.1477V36.7727L83.6591 21.7273ZM132.99 33.3636C132.99 35.9015 132.509 38.0606 131.547 39.8409C130.593 41.6212 129.29 42.9811 127.638 43.9205C125.994 44.8523 124.146 45.3182 122.093 45.3182C120.024 45.3182 118.168 44.8485 116.524 43.9091C114.88 42.9697 113.581 41.6098 112.627 39.8295C111.672 38.0492 111.195 35.8939 111.195 33.3636C111.195 30.8258 111.672 28.6667 112.627 26.8864C113.581 25.1061 114.88 23.75 116.524 22.8182C118.168 21.8788 120.024 21.4091 122.093 21.4091C124.146 21.4091 125.994 21.8788 127.638 22.8182C129.29 23.75 130.593 25.1061 131.547 26.8864C132.509 28.6667 132.99 30.8258 132.99 33.3636ZM128.002 33.3636C128.002 31.7197 127.755 30.3333 127.263 29.2045C126.778 28.0758 126.093 27.2197 125.206 26.6364C124.32 26.053 123.282 25.7614 122.093 25.7614C120.903 25.7614 119.865 26.053 118.979 26.6364C118.093 27.2197 117.403 28.0758 116.911 29.2045C116.426 30.3333 116.184 31.7197 116.184 33.3636C116.184 35.0076 116.426 36.3939 116.911 37.5227C117.403 38.6515 118.093 39.5076 118.979 40.0909C119.865 40.6742 120.903 40.9659 122.093 40.9659C123.282 40.9659 124.32 40.6742 125.206 40.0909C126.093 39.5076 126.778 38.6515 127.263 37.5227C127.755 36.3939 128.002 35.0076 128.002 33.3636ZM141.435 45V21.7273H146.356V31.3295H156.344V21.7273H161.253V45H156.344V35.3864H146.356V45H141.435ZM174.122 45H168.849L176.883 21.7273H183.224L191.247 45H185.974L180.144 27.0455H179.963L174.122 45ZM173.792 35.8523H186.247V39.6932H173.792V35.8523ZM198.848 45V21.7273H203.768V31.9886H204.075L212.45 21.7273H218.348L209.711 32.1477L218.45 45H212.564L206.189 35.4318L203.768 38.3864V45H198.848ZM240.085 21.7273H245.006V36.8409C245.006 38.5379 244.6 40.0227 243.79 41.2955C242.987 42.5682 241.862 43.5606 240.415 44.2727C238.968 44.9773 237.282 45.3295 235.358 45.3295C233.426 45.3295 231.737 44.9773 230.29 44.2727C228.843 43.5606 227.718 42.5682 226.915 41.2955C226.112 40.0227 225.71 38.5379 225.71 36.8409V21.7273H230.631V36.4205C230.631 37.3068 230.824 38.0947 231.21 38.7841C231.604 39.4735 232.157 40.0152 232.869 40.4091C233.581 40.803 234.411 41 235.358 41C236.313 41 237.142 40.803 237.847 40.4091C238.559 40.0152 239.108 39.4735 239.494 38.7841C239.888 38.0947 240.085 37.3068 240.085 36.4205V21.7273Z" fill="#334155"/>
</g>
<defs>
<clipPath id="clip0_2205_172">
<rect width="165" height="39" fill="white" transform="translate(83 14)"/>
</clipPath>
</defs>
</svg>
