<svg width="100" height="100" viewBox="0 0 100 100" fill="none" xmlns="http://www.w3.org/2000/svg">
<rect width="100" height="100" fill="#F0F1F4"/>
<path d="M37 15H18C16.3431 15 15 16.3431 15 18V37C15 38.6569 16.3431 40 18 40H37C38.6569 40 40 38.6569 40 37V18C40 16.3431 38.6569 15 37 15Z" fill="#64748B"/>
<path d="M82 15H63C61.3431 15 60 16.3431 60 18V37C60 38.6569 61.3431 40 63 40H82C83.6569 40 85 38.6569 85 37V18C85 16.3431 83.6569 15 82 15Z" fill="#64748B"/>
<path d="M37 60H18C16.3431 60 15 61.3431 15 63V82C15 83.6569 16.3431 85 18 85H37C38.6569 85 40 83.6569 40 82V63C40 61.3431 38.6569 60 37 60Z" fill="#64748B"/>
<path d="M82 60H63C61.3431 60 60 61.3431 60 63V82C60 83.6569 61.3431 85 63 85H82C83.6569 85 85 83.6569 85 82V63C85 61.3431 83.6569 60 82 60Z" stroke="#059669" stroke-width="2"/>
</svg>
