<svg width="165" height="39" viewBox="0 0 165 39" fill="none" xmlns="http://www.w3.org/2000/svg">
<g clip-path="url(#clip0_2205_167)">
<path d="M0.659091 7.72727H6.17045L11.4773 17.75H11.7045L17.0114 7.72727H22.5227L14.0341 22.7727V31H9.14773V22.7727L0.659091 7.72727ZM49.9903 19.3636C49.9903 21.9015 49.5093 24.0606 48.5472 25.8409C47.5926 27.6212 46.2896 28.9811 44.6381 29.9205C42.9941 30.8523 41.1456 31.3182 39.0926 31.3182C37.0244 31.3182 35.1684 30.8485 33.5244 29.9091C31.8805 28.9697 30.5812 27.6098 29.6267 25.8295C28.6722 24.0492 28.1949 21.8939 28.1949 19.3636C28.1949 16.8258 28.6722 14.6667 29.6267 12.8864C30.5812 11.1061 31.8805 9.75 33.5244 8.81818C35.1684 7.87879 37.0244 7.40909 39.0926 7.40909C41.1456 7.40909 42.9941 7.87879 44.6381 8.81818C46.2896 9.75 47.5926 11.1061 48.5472 12.8864C49.5093 14.6667 49.9903 16.8258 49.9903 19.3636ZM45.0017 19.3636C45.0017 17.7197 44.7555 16.3333 44.2631 15.2045C43.7782 14.0758 43.0926 13.2197 42.2062 12.6364C41.3199 12.053 40.282 11.7614 39.0926 11.7614C37.9032 11.7614 36.8653 12.053 35.979 12.6364C35.0926 13.2197 34.4032 14.0758 33.9108 15.2045C33.4259 16.3333 33.1835 17.7197 33.1835 19.3636C33.1835 21.0076 33.4259 22.3939 33.9108 23.5227C34.4032 24.6515 35.0926 25.5076 35.979 26.0909C36.8653 26.6742 37.9032 26.9659 39.0926 26.9659C40.282 26.9659 41.3199 26.6742 42.2062 26.0909C43.0926 25.5076 43.7782 24.6515 44.2631 23.5227C44.7555 22.3939 45.0017 21.0076 45.0017 19.3636ZM58.4352 31V7.72727H63.3557V17.3295H73.3443V7.72727H78.2534V31H73.3443V21.3864H63.3557V31H58.4352ZM91.1216 31H85.8489L93.883 7.72727H100.224L108.247 31H102.974L97.1443 13.0455H96.9625L91.1216 31ZM90.792 21.8523H103.247V25.6932H90.792V21.8523ZM115.848 31V7.72727H120.768V17.9886H121.075L129.45 7.72727H135.348L126.711 18.1477L135.45 31H129.564L123.189 21.4318L120.768 24.3864V31H115.848ZM157.085 7.72727H162.006V22.8409C162.006 24.5379 161.6 26.0227 160.79 27.2955C159.987 28.5682 158.862 29.5606 157.415 30.2727C155.968 30.9773 154.282 31.3295 152.358 31.3295C150.426 31.3295 148.737 30.9773 147.29 30.2727C145.843 29.5606 144.718 28.5682 143.915 27.2955C143.112 26.0227 142.71 24.5379 142.71 22.8409V7.72727H147.631V22.4205C147.631 23.3068 147.824 24.0947 148.21 24.7841C148.604 25.4735 149.157 26.0152 149.869 26.4091C150.581 26.803 151.411 27 152.358 27C153.313 27 154.142 26.803 154.847 26.4091C155.559 26.0152 156.108 25.4735 156.494 24.7841C156.888 24.0947 157.085 23.3068 157.085 22.4205V7.72727Z" fill="#334155"/>
</g>
<defs>
<clipPath id="clip0_2205_167">
<rect width="165" height="39" fill="white"/>
</clipPath>
</defs>
</svg>
